<svg width="200" height="30" viewBox="0 0 200 30" fill="none" xmlns="http://www.w3.org/2000/svg">
<path d="M18.7381 0.09375H10.0044V26.1221H18.7381V0.09375Z" fill="#7F61A0"/>
<path d="M35.8808 0.15763C35.8808 0.135034 35.8808 0.11244 35.8808 0.0898438H20.0144C20.0144 0.11244 20.0144 0.135034 20.0144 0.15763C20.0144 1.19993 20.2196 2.23203 20.6184 3.19499C21.0171 4.15796 21.6016 5.03293 22.3384 5.76995C23.0752 6.50697 23.9499 7.09161 24.9126 7.49048C25.8752 7.88935 26.907 8.09465 27.949 8.09465C28.991 8.09465 30.0228 7.88935 30.9855 7.49048C31.9481 7.09161 32.8228 6.50697 33.5596 5.76995C34.2964 5.03293 34.8809 4.15796 35.2796 3.19499C35.6784 2.23203 35.8836 1.19993 35.8836 0.15763H35.8808Z" fill="#7F61A0"/>
<path d="M7.93461 15.9669H8.00238V0.0957031H7.93461C6.89262 0.0957031 5.86084 0.301002 4.89817 0.699875C3.93549 1.09875 3.06079 1.68338 2.32399 2.4204C1.5872 3.15742 1.00274 4.03239 0.603988 4.99535C0.205237 5.95832 0 6.99042 0 8.03272C0 9.07503 0.205237 10.1071 0.603988 11.0701C1.00274 12.0331 1.5872 12.908 2.32399 13.645C3.06079 14.3821 3.93549 14.9667 4.89817 15.3656C5.86084 15.7644 6.89262 15.9697 7.93461 15.9697V15.9669Z" fill="#604180"/>
<path d="M18.7381 27.2402H10.0044V29.9998H18.7381V27.2402Z" fill="#B7ACD4"/>
<path d="M31.408 29.9599C33.8783 29.9599 35.8808 27.9568 35.8808 25.4858C35.8808 23.0148 33.8783 21.0117 31.408 21.0117C28.9378 21.0117 26.9353 23.0148 26.9353 25.4858C26.9353 27.9568 28.9378 29.9599 31.408 29.9599Z" fill="#FFCA70"/>
<path d="M55.8387 8.69727V15.4141C53.3906 15.0186 49.909 16.0072 49.909 19.9334V28.8646H43.9792V9.0927H49.909V12.6093C50.7024 9.95985 53.3482 8.69727 55.8387 8.69727Z" fill="#604180"/>
<path d="M68.0456 24.1098C69.6664 24.1098 71.0472 23.4771 71.8379 22.6071L76.5789 25.3328C74.6418 28.019 71.7193 29.403 67.9666 29.403C61.2094 29.403 57.0219 24.8583 57.0219 18.9691C57.0219 13.0799 61.2885 8.53516 67.5317 8.53516C73.3005 8.53516 77.5671 13.0008 77.5671 18.9691C77.5705 19.766 77.491 20.5612 77.33 21.3417H63.3074C64.0557 23.398 65.8742 24.1098 68.0456 24.1098ZM71.6797 16.9156C71.0472 14.6221 69.2683 13.7945 67.4922 13.7945C65.2332 13.7945 63.7395 14.9017 63.186 16.9156H71.6797Z" fill="#604180"/>
<path d="M95.4638 22.9246C95.4638 27.4693 91.5106 29.4069 87.2468 29.4069C83.2936 29.4069 80.292 27.9042 78.7531 24.704L83.8894 21.7806C84.4033 23.2833 85.5102 24.1109 87.2468 24.1109C88.6586 24.1109 89.3787 23.6759 89.3787 22.885C89.3787 20.7101 79.6595 21.8569 79.6595 15.0214C79.6595 10.714 83.2936 8.53906 87.4021 8.53906C90.6013 8.53906 93.4476 9.95134 95.1051 12.7759L90.0479 15.5016C89.4832 14.4735 88.7038 13.7617 87.4021 13.7617C86.3743 13.7617 85.7417 14.1571 85.7417 14.8689C85.7446 17.1144 95.4638 15.6118 95.4638 22.9246Z" fill="#604180"/>
<path d="M97.2399 18.972C97.2321 16.8989 97.8395 14.8701 98.9852 13.1425C100.131 11.415 101.763 10.0664 103.676 9.26763C105.588 8.46885 107.695 8.25579 109.729 8.65544C111.762 9.05508 113.631 10.0494 115.1 11.5126C116.568 12.9758 117.569 14.8419 117.976 16.8746C118.384 18.9073 118.179 21.0152 117.387 22.9313C116.596 24.8474 115.254 26.4855 113.531 27.6381C111.809 28.7907 109.783 29.4059 107.71 29.4059C106.334 29.4214 104.969 29.1623 103.694 28.6439C102.42 28.1255 101.261 27.3582 100.286 26.3867C99.3114 25.4153 98.5399 24.2592 98.0169 22.9861C97.4938 21.713 97.2297 20.3484 97.2399 18.972ZM112.254 18.972C112.254 16.1672 110.277 14.3087 107.71 14.3087C105.143 14.3087 103.167 16.1672 103.167 18.972C103.167 21.7768 105.143 23.6354 107.71 23.6354C110.277 23.6354 112.254 21.7768 112.254 18.972Z" fill="#604180"/>
<path d="M121.538 0H127.468V28.8529H121.538V0Z" fill="#604180"/>
<path d="M150.498 9.09291V28.8648H144.568V26.995C143.501 28.4581 141.527 29.4072 138.921 29.4072C134.931 29.4072 131.531 26.5628 131.531 21.2159V9.07031H137.461V20.3347C137.461 22.7864 139.002 23.9303 140.897 23.9303C143.071 23.9303 144.568 22.6649 144.568 19.8601V9.07031L150.498 9.09291Z" fill="#604180"/>
<path d="M162.349 14.7823V21.7788C162.349 23.4735 163.811 23.6373 166.418 23.4735V28.8402C158.672 29.631 156.422 27.298 156.422 21.7788V14.7823H153.262V9.09083H156.422V5.33417L162.352 3.55469V9.088H166.421V14.7795L162.349 14.7823Z" fill="#604180"/>
<path d="M169.196 3.80612C169.196 3.10279 169.405 2.41525 169.795 1.83045C170.186 1.24565 170.741 0.78985 171.391 0.520696C172.04 0.251541 172.755 0.181118 173.445 0.318331C174.135 0.455545 174.768 0.79423 175.265 1.29156C175.762 1.7889 176.101 2.42254 176.238 3.11236C176.375 3.80218 176.305 4.5172 176.036 5.167C175.767 5.81679 175.311 6.37218 174.726 6.76293C174.142 7.15368 173.454 7.36225 172.751 7.36225C171.811 7.35268 170.913 6.97495 170.248 6.31011C169.583 5.64527 169.206 4.7463 169.196 3.80612ZM169.789 9.10218H175.719V28.8741H169.789V9.10218Z" fill="#604180"/>
<path d="M179.059 18.972C179.052 16.8988 179.659 14.8698 180.805 13.1422C181.951 11.4146 183.584 10.0661 185.496 9.26736C187.409 8.46866 189.515 8.25577 191.549 8.65564C193.583 9.05551 195.452 10.0502 196.92 11.5136C198.388 12.977 199.389 14.8434 199.796 16.8763C200.203 18.9093 199.998 21.0172 199.206 22.9333C198.414 24.8493 197.072 26.4872 195.349 27.6394C193.626 28.7917 191.6 29.4065 189.527 29.4059C188.151 29.421 186.786 29.1617 185.512 28.6431C184.238 28.1245 183.079 27.3571 182.105 26.3857C181.13 25.4143 180.359 24.2584 179.836 22.9855C179.313 21.7126 179.049 20.3482 179.059 18.972ZM194.073 18.972C194.073 16.1672 192.097 14.3087 189.53 14.3087C186.963 14.3087 184.986 16.1672 184.986 18.972C184.986 21.7768 186.963 23.6354 189.53 23.6354C192.097 23.6354 194.073 21.7768 194.073 18.972Z" fill="#604180"/>
</svg>
