<svg width="50" height="42" viewBox="0 0 50 42" fill="none" xmlns="http://www.w3.org/2000/svg">
<path d="M26.1062 0H13.9385V36.5502H26.1062V0Z" fill="#7F61A0"/>
<path d="M49.9945 0.0931264C49.9945 0.0614634 49.9945 0.031663 49.9945 0H27.8872C27.8872 0.031663 27.8872 0.0614634 27.8872 0.0931264C27.8872 1.55688 28.1732 3.0063 28.7288 4.35863C29.2845 5.71096 30.0989 6.93972 31.1256 7.97475C32.1522 9.00978 33.3711 9.83081 34.7125 10.391C36.0539 10.9511 37.4917 11.2394 38.9436 11.2394C40.3956 11.2394 41.8333 10.9511 43.1747 10.391C44.5161 9.83081 45.735 9.00978 46.7617 7.97475C47.7883 6.93972 48.6027 5.71096 49.1584 4.35863C49.714 3.0063 50 1.55688 50 0.0931264H49.9945Z" fill="#7F61A0"/>
<path d="M11.0564 22.2929H11.1488V0.00585938H11.0564C9.60445 0.00585934 8.16673 0.294168 6.8253 0.854322C5.48388 1.41448 4.26503 2.23551 3.23835 3.27054C2.21166 4.30556 1.39726 5.53432 0.841622 6.88665C0.285986 8.23899 0 9.68841 0 11.1522C0 12.6159 0.285986 14.0653 0.841622 15.4177C1.39726 16.77 2.21166 17.9988 3.23835 19.0338C4.26503 20.0688 5.48388 20.8898 6.8253 21.45C8.16673 22.0101 9.60445 22.2985 11.0564 22.2985V22.2929Z" fill="#604180"/>
<path d="M26.1062 38.123H13.9385V42.0008H26.1062V38.123Z" fill="#B7ACD4"/>
<path d="M43.7628 41.9396C47.2044 41.9396 49.9944 39.1269 49.9944 35.6573C49.9944 32.1877 47.2044 29.375 43.7628 29.375C40.3211 29.375 37.5311 32.1877 37.5311 35.6573C37.5311 39.1269 40.3211 41.9396 43.7628 41.9396Z" fill="#FFCA70"/>
</svg>
